<?xml version="1.0" encoding="UTF-8" standalone="no"?>
<svg
   width="715.14813"
   height="341.48944"
   version="1.1"
   id="svg5"
   sodipodi:docname="Simple_DirectMedia_Layer,_Logo.svg"
   xml:space="preserve"
   inkscape:version="1.4.4 (dcaf3e7, 2026-05-05)"
   inkscape:export-filename="omnigine.png"
   inkscape:export-xdpi="257.73999"
   inkscape:export-ydpi="257.73999"
   xmlns:inkscape="http://www.inkscape.org/namespaces/inkscape"
   xmlns:sodipodi="http://sodipodi.sourceforge.net/DTD/sodipodi-0.dtd"
   xmlns="http://www.w3.org/2000/svg"
   xmlns:svg="http://www.w3.org/2000/svg"
   xmlns:rdf="http://www.w3.org/1999/02/22-rdf-syntax-ns#"
   xmlns:cc="http://creativecommons.org/ns#"
   xmlns:dc="http://purl.org/dc/elements/1.1/"><sodipodi:namedview
     id="namedview5"
     pagecolor="#ffffff"
     bordercolor="#000000"
     borderopacity="0.25"
     inkscape:showpageshadow="2"
     inkscape:pageopacity="0.0"
     inkscape:pagecheckerboard="0"
     inkscape:deskcolor="#d1d1d1"
     inkscape:zoom="0.95609263"
     inkscape:cx="327.8971"
     inkscape:cy="103.54645"
     inkscape:window-width="1800"
     inkscape:window-height="1101"
     inkscape:window-x="0"
     inkscape:window-y="40"
     inkscape:window-maximized="1"
     inkscape:current-layer="svg5"><inkscape:page
       x="0"
       y="0"
       width="715.14813"
       height="341.48944"
       id="page2"
       margin="0"
       bleed="0" /></sodipodi:namedview><defs
     id="defs2" /><title
     id="title2">Simple DirectMedia Layer</title><metadata
     id="metadata2"><rdf:RDF><cc:Work
         rdf:about=""><dc:format>image/svg+xml</dc:format><dc:type
           rdf:resource="http://purl.org/dc/dcmitype/StillImage" /><dc:title /></cc:Work></rdf:RDF></metadata><text
     xml:space="preserve"
     style="font-style:normal;font-variant:normal;font-weight:normal;font-stretch:normal;font-size:240px;font-family:Arial;-inkscape-font-specification:Arial;writing-mode:lr-tb;direction:ltr;fill:#173556;fill-opacity:1"
     x="-7.4400334"
     y="197.03757"
     id="text5"><tspan
       sodipodi:role="line"
       id="tspan5"
       x="-7.4400334"
       y="197.03757"
       style="font-style:italic;font-variant:normal;font-weight:500;font-stretch:normal;font-size:240px;font-family:'Helvetica Neue';-inkscape-font-specification:'Helvetica Neue Medium Italic';fill:#173556;fill-opacity:1">OMNI</tspan></text><text
     xml:space="preserve"
     style="font-style:normal;font-variant:normal;font-weight:normal;font-stretch:normal;font-size:32px;font-family:Arial;-inkscape-font-specification:Arial;writing-mode:lr-tb;direction:ltr;display:inline;fill:#173556;fill-opacity:1"
     x="168.17345"
     y="250.71796"
     id="text5-5"><tspan
       sodipodi:role="line"
       id="tspan5-8"
       x="168.17345"
       y="250.71796"
       style="font-style:italic;font-variant:normal;font-weight:bold;font-stretch:normal;font-size:32px;font-family:'Helvetica Neue';-inkscape-font-specification:'Helvetica Neue Bold Italic';fill:#173556;fill-opacity:1">Simple Game Framework</tspan></text><g
     inkscape:groupmode="layer"
     id="layer1"
     inkscape:label="Colors"
     transform="translate(-9.9105949,-23.308895)"><path
       style="fill:#ffff00;fill-opacity:1;stroke-width:0.213992"
       d="m 171.77122,338.61779 c -0.70412,-0.35891 -1.32634,-1.25067 -1.32634,-1.90089 0,-0.62763 0.64186,-1.59389 1.27694,-1.92231 1.91271,-0.9891 4.28638,0.38791 3.92524,2.2771 -0.28134,1.4717 -2.37967,2.30874 -3.87584,1.5461 z"
       id="path6" /><path
       style="fill:#0000ff;fill-opacity:1;stroke-width:0.213992"
       d="m 223.399,351.82906 c -2.92144,-1.32703 -1.80208,-5.15992 1.50692,-5.15992 3.36685,0 4.43201,3.99946 1.38938,5.21688 -1.11004,0.44414 -1.82402,0.4301 -2.8963,-0.057 z"
       id="path7" /><path
       style="fill:#008000;fill-opacity:1;stroke-width:0.213992"
       d="m 279.60723,360.80138 c -1.88057,-0.47208 -3.16034,-2.42994 -2.7242,-4.16765 0.39919,-1.59052 2.5208,-2.84707 4.42608,-2.62142 2.11774,0.25081 3.40543,1.55428 3.40686,3.4486 0.002,2.34069 -2.52079,3.99012 -5.10874,3.34047 z"
       id="path8" /><path
       style="fill:#ff0000;fill-opacity:1;stroke-width:0.213992"
       d="m 340.56738,364.66968 c -2.96719,-0.97303 -4.32121,-3.6227 -3.08666,-6.0403 0.80374,-1.57398 3.24224,-2.71229 5.22585,-2.43947 1.5185,0.20885 3.17596,1.28134 3.80362,2.4612 1.05064,1.97498 0.20013,4.43079 -1.91071,5.51706 -1.06683,0.54901 -3.11167,0.80335 -4.0321,0.50151 z"
       id="path9" /><path
       style="fill:#ffff00;fill-opacity:1;stroke-width:0.120937"
       d="m 403.74676,363.46761 c -1.65249,-0.35619 -3.28133,-1.47119 -4.03977,-2.76537 -1.31913,-2.25094 -0.58289,-5.11551 1.70553,-6.63581 3.55446,-2.3614 8.53773,-0.93552 9.76602,2.79438 0.15242,0.46287 0.19963,0.92048 0.1691,1.63921 -0.0366,0.86212 -0.10417,1.12214 -0.49912,1.92101 -1.18922,2.40547 -4.16121,3.68042 -7.10176,3.04658 z"
       id="path10" /><path
       style="fill:#0000ff;fill-opacity:1;stroke-width:0.13184"
       d="m 466.45963,355.23017 c -1.3689,-0.3311 -2.64685,-1.04065 -3.61593,-2.00766 -2.1123,-2.10776 -2.56092,-4.72207 -1.25419,-7.30883 0.45102,-0.89284 1.87891,-2.28984 2.88542,-2.82301 1.73804,-0.92069 4.33033,-1.24072 6.20008,-0.76544 2.67386,0.67969 4.92572,2.77922 5.45822,5.08899 0.30244,1.31188 0.12629,2.77532 -0.48831,4.05681 -0.4658,0.97124 -1.9589,2.46416 -3.02209,3.02173 -1.69992,0.89149 -4.25988,1.19779 -6.1632,0.73741 z"
       id="path11" /><path
       style="fill:#008000;fill-opacity:1;stroke-width:0.120422"
       d="m 530.05615,338.85227 c -2.00356,-0.33314 -3.8532,-1.29095 -5.32046,-2.75512 -1.53314,-1.5299 -2.24639,-3.0367 -2.37044,-5.00774 -0.24384,-3.87449 2.55338,-7.32335 6.88842,-8.49313 1.41431,-0.38164 3.93671,-0.38452 5.35877,-0.006 2.89572,0.77053 5.20929,2.59044 6.28992,4.94779 2.16495,4.72273 -1.01588,10.04699 -6.7036,11.22087 -1.16412,0.24026 -3.00935,0.28189 -4.14261,0.0934 z"
       id="path12" /><path
       style="fill:#ff0000;fill-opacity:1;stroke-width:0.178571"
       d="m 589.59057,314.10302 c -3.00266,-0.7867 -5.49932,-2.712 -6.71103,-5.17523 -1.64966,-3.35351 -1.09098,-6.84755 1.53158,-9.57868 1.33285,-1.38802 2.61997,-2.20122 4.4637,-2.82014 5.75912,-1.93327 12.30745,0.91652 14.05997,6.11882 0.49564,1.47127 0.49967,3.69637 0.009,5.12171 -1.07549,3.12596 -3.71978,5.43875 -7.25084,6.34185 -1.79955,0.46024 -4.32737,0.45679 -6.10266,-0.008 z"
       id="path13" /><path
       style="fill:#ffff00;fill-opacity:1;stroke-width:0.258403"
       d="m 645.75687,278.54147 c -3.94791,-0.66004 -7.33668,-3.10493 -8.88729,-6.4119 -0.57763,-1.23192 -0.68094,-1.80505 -0.68094,-3.77786 0,-1.97282 0.10331,-2.54594 0.68094,-3.77786 2.84472,-6.06693 11.20181,-8.40734 17.619,-4.93421 1.82633,0.98845 4.14127,3.57979 4.82411,5.40011 0.80989,2.15897 0.67483,5.31734 -0.31342,7.32958 -1.46062,2.97409 -4.62791,5.27445 -8.34005,6.05728 -1.97982,0.41752 -2.95533,0.44037 -4.90235,0.11486 z"
       id="path14" /><path
       style="fill:#0000ff;fill-opacity:1;stroke-width:0.291698"
       d="m 689.16934,231.01166 c -7.26897,-1.90368 -12.035,-8.39433 -10.85728,-14.78607 0.67986,-3.68974 2.56712,-6.49856 5.79423,-8.62363 3.03435,-1.99813 4.92244,-2.59796 8.67543,-2.75609 3.77483,-0.15906 5.93534,0.2921 8.93872,1.86656 6.39863,3.35435 9.06088,10.54231 6.17682,16.67718 -1.09289,2.32476 -4.07969,5.24437 -6.58464,6.43651 -3.78086,1.79936 -8.16509,2.22739 -12.14328,1.18554 z"
       id="path15" /><path
       style="fill:#008000;fill-opacity:1;stroke-width:0.359029"
       d="m 709.87805,169.81066 c -3.2303,-0.81515 -6.25019,-3.12522 -7.58366,-5.80113 -1.94068,-3.89446 -0.89108,-8.85934 2.45205,-11.59879 2.69874,-2.21141 4.60766,-2.85704 8.4643,-2.86277 2.9248,-0.004 3.69446,0.12747 5.40181,0.92511 4.27976,1.99941 6.44614,5.12313 6.44614,9.29474 0,5.73894 -4.53636,9.945 -11.05974,10.25446 -1.51958,0.0721 -3.37398,-0.0231 -4.1209,-0.21162 z"
       id="path16" /><path
       style="fill:#ff0000;fill-opacity:1;stroke-width:0.232639"
       d="m 704.42995,114.82789 c -2.59397,-0.64379 -4.58375,-2.16101 -5.73399,-4.37219 -0.7486,-1.43909 -0.75309,-4.0709 -0.01,-5.58051 0.77773,-1.57893 2.18959,-2.91806 3.9618,-3.75769 1.4335,-0.67916 1.73127,-0.73375 3.99176,-0.73185 2.15774,0.002 2.59789,0.0746 3.77295,0.62348 4.02987,1.88258 5.78868,6.01725 4.06141,9.54766 -1.08881,2.22544 -3.36329,3.82763 -6.1965,4.36494 -1.54384,0.29278 -2.37147,0.2726 -3.84793,-0.0938 z"
       id="path17" /><path
       style="fill:#ffff00;fill-opacity:1;stroke-width:0.231449"
       d="m 683.80813,74.865339 c -1.34233,-0.413795 -2.94488,-1.785262 -3.491,-2.987598 -1.96286,-4.321442 2.91636,-8.61022 7.90901,-6.951929 1.7906,0.594742 3.31951,2.185242 3.68938,3.837992 0.48065,2.147749 -0.34701,4.102054 -2.24774,5.307461 -1.87213,1.187269 -3.75599,1.442561 -5.85965,0.794074 z"
       id="path18" /><path
       style="fill:#0000ff;fill-opacity:1;stroke-width:0.138803"
       d="m 661.7891,48.471316 c -1.54813,-0.553171 -2.43005,-1.608759 -2.51964,-3.015808 -0.0305,-0.47977 0.0213,-1.105266 0.1153,-1.389991 0.23214,-0.703375 1.01486,-1.536525 1.86358,-1.983645 0.6185,-0.325838 0.86102,-0.370258 2.02145,-0.370258 1.16205,0 1.40252,0.04419 2.02514,0.372127 1.30763,0.688744 2.00014,1.759872 2.00014,3.093667 0,1.946784 -1.5652,3.381733 -3.81708,3.499421 -0.69878,0.03652 -1.17303,-0.02119 -1.68889,-0.205513 z"
       id="path19" /><path
       style="fill:#008000;fill-opacity:1;stroke-width:0.0768952"
       d="m 638.21402,27.882641 c -1.12871,-0.367833 -1.8002,-1.206889 -1.8002,-2.24943 0,-1.253839 1.0484,-2.235793 2.47527,-2.318393 2.08318,-0.120593 3.5083,1.621717 2.68088,3.277545 -0.26477,0.529843 -0.60176,0.844903 -1.22488,1.145179 -0.34197,0.164792 -0.55539,0.20829 -1.11498,0.22725 -0.43981,0.0149 -0.81017,-0.01504 -1.01609,-0.08215 z"
       id="path20" /></g></svg>
